<svg viewBox="0 0 60.8 61.6" xmlns="http://www.w3.org/2000/svg"><path d="m0 0v52h50v-52zm2 2h46v26.7l-10.3-9.5a1.85 1.85 0 0 0 -.7-.2.91.91 0 0 0 -.7.3l-9.8 10.7-4.7-4.7a1 1 0 0 0 -1.4 0l-16.8 14.7h-1.6zm46 48h-46v-8h46zm-41.4-10 14.4-12.6 10.3 10.3a1 1 0 0 0 1.4-1.4l-4.8-4.8 9.2-10.1 10.9 10v8.6zm45.8-31 8.4.9-5.4 51.7-40.4-4.2.3-2 38.3 4 5-47.7-6.4-.7zm-39.4 15.1a5.59 5.59 0 0 1 -5.6-5.6 5.51 5.51 0 0 1 5.6-5.5 5.55 5.55 0 1 1 0 11.1zm0-9.1a3.6 3.6 0 1 0 3.6 3.6 3.59 3.59 0 0 0 -3.6-3.6z" fill="#efeff4"/></svg>